<?xml version="1.0" encoding="UTF-8"?>
<svg width="658px" height="201px" viewBox="0 0 658 201" version="1.1" xmlns="http://www.w3.org/2000/svg" xmlns:xlink="http://www.w3.org/1999/xlink">
    <!-- Generator: Sketch 41.2 (35397) - http://www.bohemiancoding.com/sketch -->
    <title>Group 2 Copy 4</title>
    <desc>Created with Sketch.</desc>
    <defs></defs>
    <g id="Page-1" stroke="none" stroke-width="1" fill="none" fill-rule="evenodd">
        <g id="Group-2-Copy-4" transform="translate(0.000000, -1.000000)">
            <path d="M464.322413,167.419636 L464.322413,175.970242 L525.067035,175.970242 L525.067035,163.999394 L493.406622,163.999394 L464.322413,163.999394 L464.322413,167.419636 Z M628.562649,163.999394 L596.902236,163.999394 L596.902236,175.970242 L657.646858,175.970242 L657.646858,167.419636 L657.646858,163.999394 L628.562649,163.999394 Z M464.322413,186.23097 L464.322413,198.201818 L525.067035,198.201818 L525.067035,186.23097 L464.322413,186.23097 Z M552.512219,175.970242 L548.185844,163.999394 L573.289807,163.999394 L568.871057,175.970242 L552.512219,175.970242 Z M556.220542,186.23097 L560.541401,198.186553 L560.509108,198.201818 L560.664806,198.201818 L565.083557,186.23097 L556.220542,186.23097 Z M596.902236,186.23097 L596.902236,198.201818 L657.646858,198.201818 L657.646858,186.23097 L596.902236,186.23097 Z M488.274114,153.738667 L488.274114,140.057697 L525.067035,140.057697 L525.067035,153.738667 L488.274114,153.738667 Z M544.477522,153.738667 L539.533092,140.057697 L582.127307,140.057697 L577.077307,153.738667 L544.477522,153.738667 Z M596.902236,153.738667 L596.902236,140.057697 L633.695157,140.057697 L633.695157,153.738667 L596.902236,153.738667 Z M488.274114,129.79697 L488.274114,117.826121 L525.067035,117.826121 L525.067035,129.79697 L488.274114,129.79697 Z M535.82477,129.79697 L531.498394,117.826121 L590.333558,117.826121 L585.914808,129.79697 L535.82477,129.79697 Z M596.902236,129.79697 L596.902236,117.826121 L633.695157,117.826121 L633.695157,129.79697 L596.902236,129.79697 Z M488.274114,107.565394 L488.274114,93.8844242 L555.903453,93.8844242 L560.42006,107.565394 L527.790072,107.565394 L525.067035,100.030897 L525.067035,107.565394 L488.274114,107.565394 Z M594.121058,107.565394 L596.902236,100.030897 L596.902236,107.565394 L633.695157,107.565394 L633.695157,93.8844242 L566.065818,93.8844242 L561.549211,107.565394 L594.121058,107.565394 Z M488.274114,83.623697 L488.274114,71.6528485 L548.563968,71.6528485 L552.515998,83.623697 L488.274114,83.623697 Z M633.695157,83.623697 L633.695157,71.6528485 L573.405303,71.6528485 L569.453273,83.623697 L633.695157,83.623697 Z M476.298264,61.3921212 L464.322413,61.3921212 L464.322413,49.4212727 L541.224482,49.4212727 L545.176513,61.3921212 L476.298264,61.3921212 Z M645.671007,61.3921212 L657.646858,61.3921212 L657.646858,49.4212727 L580.744789,49.4212727 L576.792758,61.3921212 L645.671007,61.3921212 Z M464.322413,39.1605455 L464.322413,27.189697 L533.884996,27.189697 L537.837027,39.1605455 L464.322413,39.1605455 Z M584.132244,39.1605455 L588.084274,27.189697 L657.646858,27.189697 L657.646858,39.1605455 L584.132244,39.1605455 Z" id="M" fill="#D6E3E8"></path>
            <g id="Bee" transform="translate(0.000553, 0.545434)" fill="#D6E3E8">
                <path d="M278.612737,153.707884 C275.353867,166.202632 263.988054,175.424808 250.467386,175.424808 C234.404621,175.424808 221.383178,162.408803 221.383178,146.352747 C221.383178,133.933561 229.173721,123.333192 240.13633,119.168191 L299.575605,89.4186457 L278.612737,153.707884 Z" id="Oval-5"></path>
                <path d="M426.250634,153.707884 C422.991764,166.202632 411.625951,175.424808 398.105283,175.424808 C382.042518,175.424808 369.021074,162.408803 369.021074,146.352747 C369.021074,133.933561 376.811617,123.333192 387.774226,119.168191 L447.213502,89.4186457 L426.250634,153.707884 Z" id="Oval-5" transform="translate(408.117288, 132.421727) scale(-1, 1) translate(-408.117288, -132.421727) "></path>
                <path d="M298.370789,112.150323 C298.370788,112.152861 298.370788,112.1554 298.370788,112.157938 L298.370788,130.961657 L370.225891,130.961657 L370.225891,112.157938 C370.225891,112.1554 370.225891,112.152861 370.225891,112.150323 L298.370789,112.150323 Z M302.699795,95.0491051 C308.78156,83.844539 320.651377,76.2377778 334.29834,76.2377778 C347.948099,76.2377778 359.816637,83.8448551 365.897488,95.0491111 L302.699792,95.0491111 Z M298.370788,148.062869 L298.370788,165.156466 C298.370788,165.732316 298.384338,166.305002 298.411136,166.874221 L370.185538,166.874202 C370.21234,166.304991 370.225891,165.732311 370.225891,165.156466 L370.225891,148.062869 L298.370788,148.062869 Z M303.689269,183.975431 C310.013304,194.236568 321.355012,201.076626 334.29834,201.076626 C347.239044,201.076626 358.581784,194.236823 364.906702,183.975414 L303.689259,183.975414 Z" id="Rectangle-1"></path>
                <ellipse id="Oval-3" cx="317.189982" cy="59.1365657" rx="17.1083579" ry="17.1012121"></ellipse>
                <ellipse id="Oval-3" cx="353.117534" cy="59.1365657" rx="17.1083579" ry="17.1012121"></ellipse>
                <path d="M0.130718901,131.115766 C0.130718901,131.115766 22.674082,65.9066839 97.956447,65.9066839 C173.238812,65.9066839 195.665325,131.848958 195.665325,131.848958 C195.665325,131.848958 173.42039,197.023892 97.956447,197.023892 C22.4925039,197.023892 0.130718901,131.115766 0.130718901,131.115766 Z M99.0584185,187.395657 C129.766645,187.395657 154.660582,162.894941 154.660582,132.671778 C154.660582,102.448614 129.766645,77.947899 99.0584185,77.947899 C68.3501917,77.947899 43.4562553,102.448614 43.4562553,132.671778 C43.4562553,162.894941 68.3501917,187.395657 99.0584185,187.395657 Z" id="Combined-Shape"></path>
                <ellipse id="Oval-2" cx="98.2030006" cy="132.671778" rx="23.9517011" ry="23.941697"></ellipse>
                <path d="M98.2030006,0.725880955 C93.6377008,0.639260253 63.7751809,0.857316544 39.0756115,20.248189 C12.2567925,41.3028192 3.99232899,59.8357991 3.99232899,59.8357991 L3.99232899,79.315996 C3.99232899,79.315996 20.7806621,59.4739194 46.2469299,47.2009861 C69.4957044,35.9967271 94.0952341,34.9405492 98.2030006,34.841567 C102.310767,34.9405492 126.910297,35.9967271 150.159071,47.2009861 C175.625339,59.4739194 192.413672,79.315996 192.413672,79.315996 L192.413672,59.8357991 C192.413672,59.8357991 184.149209,41.3028192 157.33039,20.248189 C132.63082,0.857316544 102.7683,0.639260253 98.2030006,0.725880955 Z" id="Path-2"></path>
            </g>
            <g id="Eye" transform="translate(0.000000, 65.616162)"></g>
        </g>
    </g>
</svg>